<?xml version="1.0" encoding="UTF-8"?>
<!-- Do not edit this file with editors other than draw.io -->
<!DOCTYPE svg PUBLIC "-//W3C//DTD SVG 1.1//EN" "http://www.w3.org/Graphics/SVG/1.1/DTD/svg11.dtd">
<svg xmlns="http://www.w3.org/2000/svg" style="background: transparent; background-color: transparent; color-scheme: light dark;" xmlns:xlink="http://www.w3.org/1999/xlink" version="1.1" width="940px" height="531px" viewBox="0 0 940 531" content="&lt;mxfile host=&quot;app.diagrams.net&quot; agent=&quot;Mozilla/5.0 (Windows NT 10.0; Win64; x64) AppleWebKit/537.36 (KHTML, like Gecko) Chrome/145.0.0.0 Safari/537.36&quot; version=&quot;29.6.1&quot;&gt;&#10;  &lt;diagram name=&quot;Page-1&quot; id=&quot;-YhhBj0fWSOova_DOMyI&quot;&gt;&#10;    &lt;mxGraphModel dx=&quot;1367&quot; dy=&quot;1717&quot; grid=&quot;1&quot; gridSize=&quot;10&quot; guides=&quot;1&quot; tooltips=&quot;1&quot; connect=&quot;1&quot; arrows=&quot;1&quot; fold=&quot;1&quot; page=&quot;1&quot; pageScale=&quot;1&quot; pageWidth=&quot;850&quot; pageHeight=&quot;1100&quot; math=&quot;0&quot; shadow=&quot;0&quot;&gt;&#10;      &lt;root&gt;&#10;        &lt;mxCell id=&quot;0&quot; /&gt;&#10;        &lt;mxCell id=&quot;1&quot; parent=&quot;0&quot; /&gt;&#10;        &lt;mxCell id=&quot;eOX6T2bV7QpIJoPPMK0O-2&quot; edge=&quot;1&quot; parent=&quot;1&quot; source=&quot;PeA-X0xzFfEciDpTfAmQ-1&quot; style=&quot;edgeStyle=orthogonalEdgeStyle;rounded=0;orthogonalLoop=1;jettySize=auto;html=1;exitX=1;exitY=0.5;exitDx=0;exitDy=0;entryX=0.5;entryY=1;entryDx=0;entryDy=0;&quot; target=&quot;eOX6T2bV7QpIJoPPMK0O-1&quot;&gt;&#10;          &lt;mxGeometry relative=&quot;1&quot; as=&quot;geometry&quot; /&gt;&#10;        &lt;/mxCell&gt;&#10;        &lt;mxCell id=&quot;eOX6T2bV7QpIJoPPMK0O-18&quot; edge=&quot;1&quot; parent=&quot;1&quot; source=&quot;PeA-X0xzFfEciDpTfAmQ-1&quot; style=&quot;edgeStyle=orthogonalEdgeStyle;rounded=0;orthogonalLoop=1;jettySize=auto;html=1;exitX=0.5;exitY=1;exitDx=0;exitDy=0;entryX=0.5;entryY=0;entryDx=0;entryDy=0;&quot; target=&quot;eOX6T2bV7QpIJoPPMK0O-15&quot;&gt;&#10;          &lt;mxGeometry relative=&quot;1&quot; as=&quot;geometry&quot; /&gt;&#10;        &lt;/mxCell&gt;&#10;        &lt;mxCell id=&quot;PeA-X0xzFfEciDpTfAmQ-1&quot; parent=&quot;1&quot; style=&quot;rounded=0;whiteSpace=wrap;html=1;&quot; value=&quot;XGBoost Model&quot; vertex=&quot;1&quot;&gt;&#10;          &lt;mxGeometry height=&quot;50&quot; width=&quot;100&quot; x=&quot;720&quot; y=&quot;230&quot; as=&quot;geometry&quot; /&gt;&#10;        &lt;/mxCell&gt;&#10;        &lt;mxCell id=&quot;PeA-X0xzFfEciDpTfAmQ-2&quot; parent=&quot;1&quot; style=&quot;sketch=0;outlineConnect=0;fontColor=#232F3E;gradientColor=none;strokeColor=#ffffff;fillColor=#232F3E;dashed=0;verticalLabelPosition=middle;verticalAlign=bottom;align=center;html=1;whiteSpace=wrap;fontSize=10;fontStyle=1;spacing=3;shape=mxgraph.aws4.productIcon;prIcon=mxgraph.aws4.s3;&quot; value=&quot;Amazon S3&quot; vertex=&quot;1&quot;&gt;&#10;          &lt;mxGeometry height=&quot;80&quot; width=&quot;60&quot; x=&quot;740&quot; y=&quot;80&quot; as=&quot;geometry&quot; /&gt;&#10;        &lt;/mxCell&gt;&#10;        &lt;mxCell id=&quot;PeA-X0xzFfEciDpTfAmQ-5&quot; parent=&quot;1&quot; style=&quot;sketch=0;points=[[0,0,0],[0.25,0,0],[0.5,0,0],[0.75,0,0],[1,0,0],[0,1,0],[0.25,1,0],[0.5,1,0],[0.75,1,0],[1,1,0],[0,0.25,0],[0,0.5,0],[0,0.75,0],[1,0.25,0],[1,0.5,0],[1,0.75,0]];outlineConnect=0;fontColor=#232F3E;fillColor=#ED7100;strokeColor=#ffffff;dashed=0;verticalLabelPosition=bottom;verticalAlign=top;align=center;html=1;fontSize=12;fontStyle=0;aspect=fixed;shape=mxgraph.aws4.resourceIcon;resIcon=mxgraph.aws4.lambda;&quot; value=&quot;&quot; vertex=&quot;1&quot;&gt;&#10;          &lt;mxGeometry height=&quot;60&quot; width=&quot;60&quot; x=&quot;494&quot; y=&quot;80&quot; as=&quot;geometry&quot; /&gt;&#10;        &lt;/mxCell&gt;&#10;        &lt;mxCell id=&quot;PeA-X0xzFfEciDpTfAmQ-7&quot; edge=&quot;1&quot; parent=&quot;1&quot; source=&quot;PeA-X0xzFfEciDpTfAmQ-16&quot; style=&quot;edgeStyle=orthogonalEdgeStyle;rounded=0;orthogonalLoop=1;jettySize=auto;html=1;exitX=0.5;exitY=0;exitDx=0;exitDy=0;entryX=0.5;entryY=1;entryDx=0;entryDy=0;entryPerimeter=0;&quot; target=&quot;PeA-X0xzFfEciDpTfAmQ-5&quot;&gt;&#10;          &lt;mxGeometry relative=&quot;1&quot; as=&quot;geometry&quot;&gt;&#10;            &lt;mxPoint x=&quot;524&quot; y=&quot;230&quot; as=&quot;sourcePoint&quot; /&gt;&#10;          &lt;/mxGeometry&gt;&#10;        &lt;/mxCell&gt;&#10;        &lt;mxCell id=&quot;PeA-X0xzFfEciDpTfAmQ-8&quot; edge=&quot;1&quot; parent=&quot;1&quot; source=&quot;PeA-X0xzFfEciDpTfAmQ-5&quot; style=&quot;edgeStyle=orthogonalEdgeStyle;rounded=0;orthogonalLoop=1;jettySize=auto;html=1;exitX=1;exitY=0.5;exitDx=0;exitDy=0;exitPerimeter=0;entryX=-0.017;entryY=0.383;entryDx=0;entryDy=0;entryPerimeter=0;&quot; target=&quot;PeA-X0xzFfEciDpTfAmQ-2&quot;&gt;&#10;          &lt;mxGeometry relative=&quot;1&quot; as=&quot;geometry&quot; /&gt;&#10;        &lt;/mxCell&gt;&#10;        &lt;mxCell id=&quot;z_QWwrnSzpt2jZ-lQGPW-2&quot; edge=&quot;1&quot; parent=&quot;1&quot; source=&quot;PeA-X0xzFfEciDpTfAmQ-9&quot; style=&quot;edgeStyle=orthogonalEdgeStyle;rounded=0;orthogonalLoop=1;jettySize=auto;html=1;exitX=0.5;exitY=0.5;exitDx=0;exitDy=0;exitPerimeter=0;entryX=0;entryY=0.5;entryDx=0;entryDy=0;&quot; target=&quot;z_QWwrnSzpt2jZ-lQGPW-1&quot;&gt;&#10;          &lt;mxGeometry relative=&quot;1&quot; as=&quot;geometry&quot; /&gt;&#10;        &lt;/mxCell&gt;&#10;        &lt;mxCell id=&quot;PeA-X0xzFfEciDpTfAmQ-9&quot; parent=&quot;1&quot; style=&quot;shape=umlActor;verticalLabelPosition=bottom;verticalAlign=top;html=1;outlineConnect=0;&quot; value=&quot;Actor&quot; vertex=&quot;1&quot;&gt;&#10;          &lt;mxGeometry height=&quot;50&quot; width=&quot;30&quot; x=&quot;30&quot; y=&quot;85&quot; as=&quot;geometry&quot; /&gt;&#10;        &lt;/mxCell&gt;&#10;        &lt;mxCell id=&quot;PeA-X0xzFfEciDpTfAmQ-12&quot; parent=&quot;1&quot; style=&quot;sketch=0;points=[[0,0,0],[0.25,0,0],[0.5,0,0],[0.75,0,0],[1,0,0],[0,1,0],[0.25,1,0],[0.5,1,0],[0.75,1,0],[1,1,0],[0,0.25,0],[0,0.5,0],[0,0.75,0],[1,0.25,0],[1,0.5,0],[1,0.75,0]];outlineConnect=0;fontColor=#232F3E;fillColor=#E7157B;strokeColor=#ffffff;dashed=0;verticalLabelPosition=bottom;verticalAlign=top;align=center;html=1;fontSize=12;fontStyle=0;aspect=fixed;shape=mxgraph.aws4.resourceIcon;resIcon=mxgraph.aws4.api_gateway;&quot; value=&quot;&quot; vertex=&quot;1&quot;&gt;&#10;          &lt;mxGeometry height=&quot;60&quot; width=&quot;60&quot; x=&quot;324&quot; y=&quot;80&quot; as=&quot;geometry&quot; /&gt;&#10;        &lt;/mxCell&gt;&#10;        &lt;mxCell id=&quot;PeA-X0xzFfEciDpTfAmQ-15&quot; edge=&quot;1&quot; parent=&quot;1&quot; source=&quot;PeA-X0xzFfEciDpTfAmQ-12&quot; style=&quot;edgeStyle=orthogonalEdgeStyle;rounded=0;orthogonalLoop=1;jettySize=auto;html=1;exitX=1;exitY=0.5;exitDx=0;exitDy=0;exitPerimeter=0;entryX=0;entryY=0.5;entryDx=0;entryDy=0;entryPerimeter=0;&quot; target=&quot;PeA-X0xzFfEciDpTfAmQ-5&quot;&gt;&#10;          &lt;mxGeometry relative=&quot;1&quot; as=&quot;geometry&quot; /&gt;&#10;        &lt;/mxCell&gt;&#10;        &lt;mxCell id=&quot;PeA-X0xzFfEciDpTfAmQ-16&quot; parent=&quot;1&quot; style=&quot;whiteSpace=wrap;html=1;&quot; value=&quot;Anthropic&quot; vertex=&quot;1&quot;&gt;&#10;          &lt;mxGeometry height=&quot;50&quot; width=&quot;110&quot; x=&quot;469&quot; y=&quot;290&quot; as=&quot;geometry&quot; /&gt;&#10;        &lt;/mxCell&gt;&#10;        &lt;mxCell id=&quot;z_QWwrnSzpt2jZ-lQGPW-3&quot; edge=&quot;1&quot; parent=&quot;1&quot; source=&quot;z_QWwrnSzpt2jZ-lQGPW-1&quot; style=&quot;edgeStyle=orthogonalEdgeStyle;rounded=0;orthogonalLoop=1;jettySize=auto;html=1;exitX=1;exitY=0.5;exitDx=0;exitDy=0;&quot; target=&quot;PeA-X0xzFfEciDpTfAmQ-12&quot;&gt;&#10;          &lt;mxGeometry relative=&quot;1&quot; as=&quot;geometry&quot; /&gt;&#10;        &lt;/mxCell&gt;&#10;        &lt;mxCell id=&quot;z_QWwrnSzpt2jZ-lQGPW-1&quot; parent=&quot;1&quot; style=&quot;whiteSpace=wrap;html=1;&quot; value=&quot;Telegram Bot&quot; vertex=&quot;1&quot;&gt;&#10;          &lt;mxGeometry height=&quot;55&quot; width=&quot;100&quot; x=&quot;140&quot; y=&quot;83&quot; as=&quot;geometry&quot; /&gt;&#10;        &lt;/mxCell&gt;&#10;        &lt;mxCell id=&quot;eOX6T2bV7QpIJoPPMK0O-3&quot; edge=&quot;1&quot; parent=&quot;1&quot; source=&quot;eOX6T2bV7QpIJoPPMK0O-1&quot; style=&quot;edgeStyle=orthogonalEdgeStyle;rounded=0;orthogonalLoop=1;jettySize=auto;html=1;exitX=0.5;exitY=0;exitDx=0;exitDy=0;&quot; target=&quot;PeA-X0xzFfEciDpTfAmQ-2&quot;&gt;&#10;          &lt;mxGeometry relative=&quot;1&quot; as=&quot;geometry&quot;&gt;&#10;            &lt;Array as=&quot;points&quot;&gt;&#10;              &lt;mxPoint x=&quot;919&quot; y=&quot;110&quot; /&gt;&#10;            &lt;/Array&gt;&#10;          &lt;/mxGeometry&gt;&#10;        &lt;/mxCell&gt;&#10;        &lt;mxCell id=&quot;eOX6T2bV7QpIJoPPMK0O-1&quot; parent=&quot;1&quot; style=&quot;whiteSpace=wrap;html=1;&quot; value=&quot;Windows Task Scheduler&quot; vertex=&quot;1&quot;&gt;&#10;          &lt;mxGeometry height=&quot;40&quot; width=&quot;100&quot; x=&quot;869&quot; y=&quot;160&quot; as=&quot;geometry&quot; /&gt;&#10;        &lt;/mxCell&gt;&#10;        &lt;mxCell id=&quot;eOX6T2bV7QpIJoPPMK0O-7&quot; edge=&quot;1&quot; parent=&quot;1&quot; source=&quot;eOX6T2bV7QpIJoPPMK0O-5&quot; style=&quot;edgeStyle=orthogonalEdgeStyle;rounded=0;orthogonalLoop=1;jettySize=auto;html=1;exitX=0;exitY=0.5;exitDx=0;exitDy=0;exitPerimeter=0;&quot; target=&quot;PeA-X0xzFfEciDpTfAmQ-5&quot;&gt;&#10;          &lt;mxGeometry relative=&quot;1&quot; as=&quot;geometry&quot; /&gt;&#10;        &lt;/mxCell&gt;&#10;        &lt;mxCell id=&quot;eOX6T2bV7QpIJoPPMK0O-5&quot; parent=&quot;1&quot; style=&quot;sketch=0;points=[[0,0,0],[0.25,0,0],[0.5,0,0],[0.75,0,0],[1,0,0],[0,1,0],[0.25,1,0],[0.5,1,0],[0.75,1,0],[1,1,0],[0,0.25,0],[0,0.5,0],[0,0.75,0],[1,0.25,0],[1,0.5,0],[1,0.75,0]];outlineConnect=0;fontColor=#232F3E;fillColor=#C925D1;strokeColor=#ffffff;dashed=0;verticalLabelPosition=bottom;verticalAlign=top;align=center;html=1;fontSize=12;fontStyle=0;aspect=fixed;shape=mxgraph.aws4.resourceIcon;resIcon=mxgraph.aws4.dynamodb;&quot; value=&quot;&quot; vertex=&quot;1&quot;&gt;&#10;          &lt;mxGeometry height=&quot;60&quot; width=&quot;60&quot; x=&quot;730&quot; y=&quot;-40&quot; as=&quot;geometry&quot; /&gt;&#10;        &lt;/mxCell&gt;&#10;        &lt;mxCell id=&quot;eOX6T2bV7QpIJoPPMK0O-6&quot; edge=&quot;1&quot; parent=&quot;1&quot; source=&quot;PeA-X0xzFfEciDpTfAmQ-5&quot; style=&quot;edgeStyle=orthogonalEdgeStyle;rounded=0;orthogonalLoop=1;jettySize=auto;html=1;exitX=0.5;exitY=0;exitDx=0;exitDy=0;exitPerimeter=0;entryX=0;entryY=0.5;entryDx=0;entryDy=0;entryPerimeter=0;&quot; target=&quot;eOX6T2bV7QpIJoPPMK0O-5&quot;&gt;&#10;          &lt;mxGeometry relative=&quot;1&quot; as=&quot;geometry&quot; /&gt;&#10;        &lt;/mxCell&gt;&#10;        &lt;mxCell id=&quot;eOX6T2bV7QpIJoPPMK0O-19&quot; edge=&quot;1&quot; parent=&quot;1&quot; source=&quot;eOX6T2bV7QpIJoPPMK0O-15&quot; style=&quot;edgeStyle=orthogonalEdgeStyle;rounded=0;orthogonalLoop=1;jettySize=auto;html=1;exitX=0.5;exitY=0;exitDx=0;exitDy=0;entryX=0.5;entryY=1;entryDx=0;entryDy=0;&quot; target=&quot;PeA-X0xzFfEciDpTfAmQ-1&quot;&gt;&#10;          &lt;mxGeometry relative=&quot;1&quot; as=&quot;geometry&quot; /&gt;&#10;        &lt;/mxCell&gt;&#10;        &lt;mxCell id=&quot;eOX6T2bV7QpIJoPPMK0O-15&quot; parent=&quot;1&quot; style=&quot;whiteSpace=wrap;html=1;&quot; value=&quot;Local Cache&quot; vertex=&quot;1&quot;&gt;&#10;          &lt;mxGeometry height=&quot;50&quot; width=&quot;100&quot; x=&quot;720&quot; y=&quot;340&quot; as=&quot;geometry&quot; /&gt;&#10;        &lt;/mxCell&gt;&#10;        &lt;mxCell id=&quot;eOX6T2bV7QpIJoPPMK0O-17&quot; edge=&quot;1&quot; parent=&quot;1&quot; source=&quot;eOX6T2bV7QpIJoPPMK0O-16&quot; style=&quot;edgeStyle=orthogonalEdgeStyle;rounded=0;orthogonalLoop=1;jettySize=auto;html=1;exitX=0.5;exitY=0;exitDx=0;exitDy=0;entryX=0.5;entryY=1;entryDx=0;entryDy=0;&quot; target=&quot;eOX6T2bV7QpIJoPPMK0O-15&quot;&gt;&#10;          &lt;mxGeometry relative=&quot;1&quot; as=&quot;geometry&quot; /&gt;&#10;        &lt;/mxCell&gt;&#10;        &lt;mxCell id=&quot;eOX6T2bV7QpIJoPPMK0O-16&quot; parent=&quot;1&quot; style=&quot;whiteSpace=wrap;html=1;&quot; value=&quot;FPL API&quot; vertex=&quot;1&quot;&gt;&#10;          &lt;mxGeometry height=&quot;40&quot; width=&quot;100&quot; x=&quot;720&quot; y=&quot;450&quot; as=&quot;geometry&quot; /&gt;&#10;        &lt;/mxCell&gt;&#10;      &lt;/root&gt;&#10;    &lt;/mxGraphModel&gt;&#10;  &lt;/diagram&gt;&#10;&lt;/mxfile&gt;&#10;"><defs><linearGradient x1="0%" y1="0%" x2="0%" y2="100%" id="drawio-svg-2fifdWWcvcKpESlVl3RF-gradient-light-dark_232f3e_bdc7d4_-100-light-dark_232f3e_bdc7d4_-100-s-0"><stop offset="0%" stop-color="#232F3E" stop-opacity="100" style="stop-color: light-dark(rgb(35, 47, 62), rgb(189, 199, 212)); stop-opacity: 100;"/><stop offset="100%" stop-color="#232F3E" stop-opacity="100" style="stop-color: light-dark(rgb(35, 47, 62), rgb(189, 199, 212)); stop-opacity: 100;"/></linearGradient></defs><g><g data-cell-id="0"><g data-cell-id="1"><g data-cell-id="eOX6T2bV7QpIJoPPMK0O-2"><g transform="translate(0.5,0.5)"><path d="M 790 295 L 889 295 L 889 246.37" fill="none" stroke="#000000" stroke-miterlimit="10" pointer-events="stroke" style="stroke: light-dark(rgb(0, 0, 0), rgb(255, 255, 255));"/><path d="M 889 241.12 L 892.5 248.12 L 889 246.37 L 885.5 248.12 Z" fill="#000000" stroke="#000000" stroke-miterlimit="10" pointer-events="all" style="fill: light-dark(rgb(0, 0, 0), rgb(255, 255, 255)); stroke: light-dark(rgb(0, 0, 0), rgb(255, 255, 255));"/></g></g><g data-cell-id="eOX6T2bV7QpIJoPPMK0O-18"><g transform="translate(0.5,0.5)"><path d="M 740 320 L 740 373.63" fill="none" stroke="#000000" stroke-miterlimit="10" pointer-events="stroke" style="stroke: light-dark(rgb(0, 0, 0), rgb(255, 255, 255));"/><path d="M 740 378.88 L 736.5 371.88 L 740 373.63 L 743.5 371.88 Z" fill="#000000" stroke="#000000" stroke-miterlimit="10" pointer-events="all" style="fill: light-dark(rgb(0, 0, 0), rgb(255, 255, 255)); stroke: light-dark(rgb(0, 0, 0), rgb(255, 255, 255));"/></g></g><g data-cell-id="PeA-X0xzFfEciDpTfAmQ-1"><g transform="translate(0.5,0.5)"><rect x="690" y="270" width="100" height="50" fill="#ffffff" stroke="#000000" pointer-events="all" style="fill: light-dark(#ffffff, var(--ge-dark-color, #121212)); stroke: light-dark(rgb(0, 0, 0), rgb(255, 255, 255));"/></g><g><g><switch><foreignObject style="overflow: visible; text-align: left;" pointer-events="none" width="100%" height="100%" requiredFeatures="http://www.w3.org/TR/SVG11/feature#Extensibility"><div xmlns="http://www.w3.org/1999/xhtml" style="display: flex; align-items: unsafe center; justify-content: unsafe center; width: 98px; height: 1px; padding-top: 295px; margin-left: 691px;"><div style="box-sizing: border-box; font-size: 0; text-align: center; color: #000000; "><div style="display: inline-block; font-size: 12px; font-family: Helvetica; color: light-dark(#000000, #ffffff); line-height: 1.2; pointer-events: all; white-space: normal; word-wrap: normal; ">XGBoost Model</div></div></div></foreignObject><text x="740" y="299" fill="light-dark(#000000, #ffffff)" font-family="Helvetica" font-size="12px" text-anchor="middle">XGBoost Model</text></switch></g></g></g><g data-cell-id="PeA-X0xzFfEciDpTfAmQ-2"><g transform="translate(0.5,0.5)"><path d="M 710 120 L 770 120 L 770 200 L 710 200 Z" fill="#ffffff" stroke="none" pointer-events="all" style="fill: light-dark(rgb(255, 255, 255), rgb(18, 18, 18));"/><path d="M 711 121 L 769 121 L 769 179 L 711 179 Z" fill="url(#drawio-svg-2fifdWWcvcKpESlVl3RF-gradient-light-dark_232f3e_bdc7d4_-100-light-dark_232f3e_bdc7d4_-100-s-0)" stroke="none" pointer-events="all" style="fill: url(&quot;#drawio-svg-2fifdWWcvcKpESlVl3RF-gradient-light-dark_232f3e_bdc7d4_-100-light-dark_232f3e_bdc7d4_-100-s-0&quot;);"/><path d="M 754.92 152.07 L 755.2 150.13 C 757.73 151.65 757.76 152.28 757.76 152.29 C 757.76 152.3 757.32 152.66 754.92 152.07 Z M 753.54 151.68 C 749.16 150.36 743.08 147.56 740.61 146.4 C 740.61 146.39 740.62 146.38 740.62 146.37 C 740.62 145.43 739.85 144.66 738.9 144.66 C 737.95 144.66 737.18 145.43 737.18 146.37 C 737.18 147.32 737.95 148.09 738.9 148.09 C 739.32 148.09 739.69 147.93 739.99 147.69 C 742.89 149.06 748.93 151.81 753.33 153.11 L 751.59 165.4 C 751.59 165.43 751.58 165.47 751.58 165.5 C 751.58 166.58 746.79 168.57 738.97 168.57 C 731.05 168.57 726.21 166.58 726.21 165.5 C 726.21 165.47 726.21 165.44 726.21 165.4 L 722.57 138.83 C 725.72 141 732.49 142.14 738.97 142.14 C 745.44 142.14 752.2 141 755.36 138.84 Z M 722.18 136.06 C 722.24 135.12 727.64 131.43 738.97 131.43 C 750.3 131.43 755.7 135.12 755.76 136.06 L 755.76 136.38 C 755.13 138.48 748.13 140.71 738.97 140.71 C 729.79 140.71 722.79 138.48 722.18 136.37 Z M 757.18 136.07 C 757.18 133.6 750.09 130 738.97 130 C 727.85 130 720.76 133.6 720.76 136.07 L 720.82 136.61 L 724.79 165.56 C 724.88 168.79 733.51 170 738.97 170 C 745.73 170 752.92 168.44 753.01 165.56 L 754.72 153.49 C 755.68 153.72 756.46 153.83 757.09 153.83 C 757.93 153.83 758.5 153.63 758.85 153.21 C 759.14 152.88 759.24 152.47 759.16 152.03 C 758.98 151.04 757.8 149.97 755.41 148.61 L 757.11 136.64 Z" fill="#ffffff" stroke="none" pointer-events="all" style="fill: light-dark(rgb(255, 255, 255), rgb(18, 18, 18));"/></g><g><g><switch><foreignObject style="overflow: visible; text-align: left;" pointer-events="none" width="100%" height="100%" requiredFeatures="http://www.w3.org/TR/SVG11/feature#Extensibility"><div xmlns="http://www.w3.org/1999/xhtml" style="display: flex; align-items: unsafe flex-end; justify-content: unsafe center; width: 56px; height: 1px; padding-top: 196px; margin-left: 712px;"><div style="box-sizing: border-box; font-size: 0; text-align: center; color: #232F3E; "><div style="display: inline-block; font-size: 10px; font-family: Helvetica; color: light-dark(#232F3E, #bdc7d4); line-height: 1.2; pointer-events: all; font-weight: bold; white-space: normal; word-wrap: normal; ">Amazon S3</div></div></div></foreignObject><text x="740" y="196" fill="#232F3E" font-family="Helvetica" font-size="10px" text-anchor="middle" font-weight="bold">Amazon S3</text></switch></g></g></g><g data-cell-id="PeA-X0xzFfEciDpTfAmQ-5"><g transform="translate(0.5,0.5)"><path d="M 464 120 L 524 120 L 524 180 L 464 180 Z" fill="#ed7100" stroke="none" pointer-events="all" style="fill: light-dark(rgb(237, 113, 0), rgb(216, 109, 12));"/><path d="M 483.74 172.29 L 473.1 172.29 L 484.87 147.68 L 490.2 158.66 Z M 485.64 145.33 C 485.49 145.04 485.19 144.85 484.87 144.85 L 484.86 144.85 C 484.53 144.85 484.23 145.04 484.09 145.34 L 470.96 172.77 C 470.84 173.04 470.85 173.35 471.01 173.6 C 471.17 173.85 471.44 174 471.74 174 L 484.29 174 C 484.62 174 484.92 173.81 485.06 173.51 L 491.93 159.02 C 492.04 158.79 492.04 158.52 491.93 158.28 Z M 515.45 172.29 L 504.87 172.29 L 487.91 136.77 C 487.77 136.48 487.46 136.29 487.13 136.29 L 480.21 136.29 L 480.22 127.71 L 493.78 127.71 L 510.67 163.22 C 510.81 163.52 511.11 163.71 511.44 163.71 L 515.45 163.71 Z M 516.31 162 L 511.99 162 L 495.1 126.49 C 494.96 126.19 494.66 126 494.32 126 L 479.36 126 C 478.89 126 478.5 126.38 478.5 126.86 L 478.49 137.14 C 478.49 137.37 478.58 137.59 478.75 137.75 C 478.91 137.91 479.12 138 479.35 138 L 486.59 138 L 503.56 173.51 C 503.7 173.81 504 174 504.33 174 L 516.31 174 C 516.78 174 517.16 173.62 517.16 173.14 L 517.16 162.86 C 517.16 162.38 516.78 162 516.31 162 Z" fill="#ffffff" stroke="none" pointer-events="all" style="fill: light-dark(rgb(255, 255, 255), rgb(18, 18, 18));"/></g></g><g data-cell-id="PeA-X0xzFfEciDpTfAmQ-7"><g transform="translate(0.5,0.5)"><path d="M 494 330 L 494 186.37" fill="none" stroke="#000000" stroke-miterlimit="10" pointer-events="stroke" style="stroke: light-dark(rgb(0, 0, 0), rgb(255, 255, 255));"/><path d="M 494 181.12 L 497.5 188.12 L 494 186.37 L 490.5 188.12 Z" fill="#000000" stroke="#000000" stroke-miterlimit="10" pointer-events="all" style="fill: light-dark(rgb(0, 0, 0), rgb(255, 255, 255)); stroke: light-dark(rgb(0, 0, 0), rgb(255, 255, 255));"/></g></g><g data-cell-id="PeA-X0xzFfEciDpTfAmQ-8"><g transform="translate(0.5,0.5)"><path d="M 524 150 L 617 150.07 L 702.61 150.6" fill="none" stroke="#000000" stroke-miterlimit="10" pointer-events="stroke" style="stroke: light-dark(rgb(0, 0, 0), rgb(255, 255, 255));"/><path d="M 707.86 150.63 L 700.84 154.09 L 702.61 150.6 L 700.88 147.09 Z" fill="#000000" stroke="#000000" stroke-miterlimit="10" pointer-events="all" style="fill: light-dark(rgb(0, 0, 0), rgb(255, 255, 255)); stroke: light-dark(rgb(0, 0, 0), rgb(255, 255, 255));"/></g></g><g data-cell-id="z_QWwrnSzpt2jZ-lQGPW-2"><g transform="translate(0.5,0.5)"><path d="M 15 150 L 70.07 150.07 L 103.63 150.43" fill="none" stroke="#000000" stroke-miterlimit="10" pointer-events="stroke" style="stroke: light-dark(rgb(0, 0, 0), rgb(255, 255, 255));"/><path d="M 108.88 150.49 L 101.84 153.91 L 103.63 150.43 L 101.92 146.91 Z" fill="#000000" stroke="#000000" stroke-miterlimit="10" pointer-events="all" style="fill: light-dark(rgb(0, 0, 0), rgb(255, 255, 255)); stroke: light-dark(rgb(0, 0, 0), rgb(255, 255, 255));"/></g></g><g data-cell-id="PeA-X0xzFfEciDpTfAmQ-9"><g transform="translate(0.5,0.5)"><ellipse cx="15" cy="131.25" rx="7.5" ry="6.25" fill="#ffffff" stroke="#000000" pointer-events="all" style="fill: light-dark(#ffffff, var(--ge-dark-color, #121212)); stroke: light-dark(rgb(0, 0, 0), rgb(255, 255, 255));"/><path d="M 15 137.5 L 15 158.33 M 15 141.67 L 0 141.67 M 15 141.67 L 30 141.67 M 15 158.33 L 0 175 M 15 158.33 L 30 175" fill="none" stroke="#000000" stroke-miterlimit="10" pointer-events="all" style="stroke: light-dark(rgb(0, 0, 0), rgb(255, 255, 255));"/></g><g><g><switch><foreignObject style="overflow: visible; text-align: left;" pointer-events="none" width="100%" height="100%" requiredFeatures="http://www.w3.org/TR/SVG11/feature#Extensibility"><div xmlns="http://www.w3.org/1999/xhtml" style="display: flex; align-items: unsafe flex-start; justify-content: unsafe center; width: 1px; height: 1px; padding-top: 182px; margin-left: 15px;"><div style="box-sizing: border-box; font-size: 0; text-align: center; color: #000000; "><div style="display: inline-block; font-size: 12px; font-family: Helvetica; color: light-dark(#000000, #ffffff); line-height: 1.2; pointer-events: all; white-space: nowrap; ">Actor</div></div></div></foreignObject><text x="15" y="194" fill="light-dark(#000000, #ffffff)" font-family="Helvetica" font-size="12px" text-anchor="middle">Actor</text></switch></g></g></g><g data-cell-id="PeA-X0xzFfEciDpTfAmQ-12"><g transform="translate(0.5,0.5)"><path d="M 294 120 L 354 120 L 354 180 L 294 180 Z" fill="#e7157b" stroke="none" pointer-events="all" style="fill: light-dark(rgb(231, 21, 123), rgb(255, 129, 217));"/><path d="M 318.92 163.41 L 321.43 163.41 L 321.43 161.68 L 318.92 161.68 Z M 323.14 163.41 L 325.71 163.41 L 325.71 161.68 L 323.14 161.68 Z M 312.87 128.3 L 301.73 133.82 L 301.73 168.17 L 312.87 171.94 Z M 314.58 139.23 L 314.58 161.68 L 317.15 161.68 L 317.15 163.41 L 314.58 163.41 L 314.58 173.14 C 314.58 173.41 314.45 173.68 314.22 173.84 C 314.08 173.95 313.9 174 313.72 174 C 313.63 174 313.54 173.99 313.45 173.96 L 300.61 169.61 C 300.26 169.49 300.02 169.16 300.02 168.79 L 300.02 133.28 C 300.02 132.95 300.21 132.65 300.5 132.51 L 313.35 126.13 C 313.61 126 313.92 126.02 314.18 126.17 C 314.43 126.33 314.58 126.61 314.58 126.91 L 314.58 137.5 L 317.15 137.5 L 317.15 139.23 Z M 327.43 163.41 L 329.99 163.41 L 329.99 161.68 L 327.43 161.68 Z M 327.48 139.23 L 329.99 139.23 L 329.99 137.5 L 327.48 137.5 Z M 323.2 139.23 L 325.71 139.23 L 325.71 137.5 L 323.2 137.5 Z M 318.92 139.23 L 321.43 139.23 L 321.43 137.5 L 318.92 137.5 Z M 346.27 133.82 L 335.13 128.3 L 335.13 171.94 L 346.27 168.17 Z M 347.98 168.79 C 347.98 169.16 347.74 169.49 347.39 169.61 L 334.55 173.96 C 334.46 173.99 334.37 174 334.28 174 C 334.1 174 333.92 173.95 333.78 173.84 C 333.55 173.68 333.42 173.41 333.42 173.14 L 333.42 163.41 L 331.76 163.41 L 331.76 161.68 L 333.42 161.68 L 333.42 139.23 L 331.76 139.23 L 331.76 137.5 L 333.42 137.5 L 333.42 126.91 C 333.42 126.61 333.57 126.33 333.82 126.17 C 334.08 126.02 334.39 126 334.65 126.13 L 347.5 132.51 C 347.79 132.65 347.98 132.95 347.98 133.28 Z M 326.51 144.72 L 324.91 144.1 L 320.63 155.33 L 322.23 155.95 Z M 332.31 150.2 C 332.65 149.86 332.65 149.32 332.31 148.98 L 328.89 145.52 L 327.68 146.75 L 330.5 149.59 L 327.68 152.43 L 328.89 153.66 Z M 319.11 153.66 L 315.69 150.2 C 315.35 149.86 315.35 149.32 315.69 148.98 L 319.11 145.52 L 320.32 146.75 L 317.5 149.59 L 320.32 152.43 Z" fill="#ffffff" stroke="none" pointer-events="all" style="fill: light-dark(rgb(255, 255, 255), rgb(18, 18, 18));"/></g></g><g data-cell-id="PeA-X0xzFfEciDpTfAmQ-15"><g transform="translate(0.5,0.5)"><path d="M 354 150 L 457.63 150" fill="none" stroke="#000000" stroke-miterlimit="10" pointer-events="stroke" style="stroke: light-dark(rgb(0, 0, 0), rgb(255, 255, 255));"/><path d="M 462.88 150 L 455.88 153.5 L 457.63 150 L 455.88 146.5 Z" fill="#000000" stroke="#000000" stroke-miterlimit="10" pointer-events="all" style="fill: light-dark(rgb(0, 0, 0), rgb(255, 255, 255)); stroke: light-dark(rgb(0, 0, 0), rgb(255, 255, 255));"/></g></g><g data-cell-id="PeA-X0xzFfEciDpTfAmQ-16"><g transform="translate(0.5,0.5)"><rect x="439" y="330" width="110" height="50" fill="#ffffff" stroke="#000000" pointer-events="all" style="fill: light-dark(#ffffff, var(--ge-dark-color, #121212)); stroke: light-dark(rgb(0, 0, 0), rgb(255, 255, 255));"/></g><g><g><switch><foreignObject style="overflow: visible; text-align: left;" pointer-events="none" width="100%" height="100%" requiredFeatures="http://www.w3.org/TR/SVG11/feature#Extensibility"><div xmlns="http://www.w3.org/1999/xhtml" style="display: flex; align-items: unsafe center; justify-content: unsafe center; width: 108px; height: 1px; padding-top: 355px; margin-left: 440px;"><div style="box-sizing: border-box; font-size: 0; text-align: center; color: #000000; "><div style="display: inline-block; font-size: 12px; font-family: Helvetica; color: light-dark(#000000, #ffffff); line-height: 1.2; pointer-events: all; white-space: normal; word-wrap: normal; ">Anthropic</div></div></div></foreignObject><text x="494" y="359" fill="light-dark(#000000, #ffffff)" font-family="Helvetica" font-size="12px" text-anchor="middle">Anthropic</text></switch></g></g></g><g data-cell-id="z_QWwrnSzpt2jZ-lQGPW-3"><g transform="translate(0.5,0.5)"><path d="M 210 150.5 L 252.07 150.47 L 287.63 150.13" fill="none" stroke="#000000" stroke-miterlimit="10" pointer-events="stroke" style="stroke: light-dark(rgb(0, 0, 0), rgb(255, 255, 255));"/><path d="M 292.88 150.08 L 285.92 153.64 L 287.63 150.13 L 285.85 146.64 Z" fill="#000000" stroke="#000000" stroke-miterlimit="10" pointer-events="all" style="fill: light-dark(rgb(0, 0, 0), rgb(255, 255, 255)); stroke: light-dark(rgb(0, 0, 0), rgb(255, 255, 255));"/></g></g><g data-cell-id="z_QWwrnSzpt2jZ-lQGPW-1"><g transform="translate(0.5,0.5)"><rect x="110" y="123" width="100" height="55" fill="#ffffff" stroke="#000000" pointer-events="all" style="fill: light-dark(#ffffff, var(--ge-dark-color, #121212)); stroke: light-dark(rgb(0, 0, 0), rgb(255, 255, 255));"/></g><g><g><switch><foreignObject style="overflow: visible; text-align: left;" pointer-events="none" width="100%" height="100%" requiredFeatures="http://www.w3.org/TR/SVG11/feature#Extensibility"><div xmlns="http://www.w3.org/1999/xhtml" style="display: flex; align-items: unsafe center; justify-content: unsafe center; width: 98px; height: 1px; padding-top: 151px; margin-left: 111px;"><div style="box-sizing: border-box; font-size: 0; text-align: center; color: #000000; "><div style="display: inline-block; font-size: 12px; font-family: Helvetica; color: light-dark(#000000, #ffffff); line-height: 1.2; pointer-events: all; white-space: normal; word-wrap: normal; ">Telegram Bot</div></div></div></foreignObject><text x="160" y="154" fill="light-dark(#000000, #ffffff)" font-family="Helvetica" font-size="12px" text-anchor="middle">Telegram Bot</text></switch></g></g></g><g data-cell-id="eOX6T2bV7QpIJoPPMK0O-3"><g transform="translate(0.5,0.5)"><path d="M 889 200 L 889 150.07 L 776.37 150.07" fill="none" stroke="#000000" stroke-miterlimit="10" pointer-events="stroke" style="stroke: light-dark(rgb(0, 0, 0), rgb(255, 255, 255));"/><path d="M 771.12 150.07 L 778.12 146.57 L 776.37 150.07 L 778.12 153.57 Z" fill="#000000" stroke="#000000" stroke-miterlimit="10" pointer-events="all" style="fill: light-dark(rgb(0, 0, 0), rgb(255, 255, 255)); stroke: light-dark(rgb(0, 0, 0), rgb(255, 255, 255));"/></g></g><g data-cell-id="eOX6T2bV7QpIJoPPMK0O-1"><g transform="translate(0.5,0.5)"><rect x="839" y="200" width="100" height="40" fill="#ffffff" stroke="#000000" pointer-events="all" style="fill: light-dark(#ffffff, var(--ge-dark-color, #121212)); stroke: light-dark(rgb(0, 0, 0), rgb(255, 255, 255));"/></g><g><g><switch><foreignObject style="overflow: visible; text-align: left;" pointer-events="none" width="100%" height="100%" requiredFeatures="http://www.w3.org/TR/SVG11/feature#Extensibility"><div xmlns="http://www.w3.org/1999/xhtml" style="display: flex; align-items: unsafe center; justify-content: unsafe center; width: 98px; height: 1px; padding-top: 220px; margin-left: 840px;"><div style="box-sizing: border-box; font-size: 0; text-align: center; color: #000000; "><div style="display: inline-block; font-size: 12px; font-family: Helvetica; color: light-dark(#000000, #ffffff); line-height: 1.2; pointer-events: all; white-space: normal; word-wrap: normal; ">Windows Task Scheduler</div></div></div></foreignObject><text x="889" y="224" fill="light-dark(#000000, #ffffff)" font-family="Helvetica" font-size="12px" text-anchor="middle">Windows Task Sch...</text></switch></g></g></g><g data-cell-id="eOX6T2bV7QpIJoPPMK0O-7"><g transform="translate(0.5,0.5)"><path d="M 700 30 L 494.07 30.07 L 494.07 113.63" fill="none" stroke="#000000" stroke-miterlimit="10" pointer-events="stroke" style="stroke: light-dark(rgb(0, 0, 0), rgb(255, 255, 255));"/><path d="M 494.07 118.88 L 490.57 111.88 L 494.07 113.63 L 497.57 111.88 Z" fill="#000000" stroke="#000000" stroke-miterlimit="10" pointer-events="all" style="fill: light-dark(rgb(0, 0, 0), rgb(255, 255, 255)); stroke: light-dark(rgb(0, 0, 0), rgb(255, 255, 255));"/></g></g><g data-cell-id="eOX6T2bV7QpIJoPPMK0O-5"><g transform="translate(0.5,0.5)"><path d="M 700 0 L 760 0 L 760 60 L 700 60 Z" fill="#c925d1" stroke="none" pointer-events="all" style="fill: light-dark(rgb(201, 37, 209), rgb(255, 124, 255));"/><path d="M 740.33 42.73 C 737.47 45.04 731.46 46.26 725.72 46.26 C 719.97 46.26 713.97 45.04 711.11 42.73 L 711.11 47.39 L 711.11 47.39 C 711.11 49.71 717.11 52.3 725.72 52.3 C 734.32 52.3 740.32 49.71 740.33 47.39 Z M 740.33 33.88 L 742.04 33.87 L 742.04 33.88 C 742.04 34.91 741.52 35.88 740.51 36.76 C 741.74 37.84 742.04 38.9 742.04 39.65 C 742.04 39.65 742.04 39.66 742.04 39.66 L 742.04 47.39 L 742.04 47.39 C 742.04 51.68 733.63 54 725.72 54 C 717.83 54 709.44 51.69 709.4 47.42 C 709.4 47.41 709.4 47.41 709.4 47.4 L 709.4 39.65 C 709.4 39.65 709.4 39.64 709.4 39.64 C 709.4 38.89 709.71 37.84 710.93 36.76 C 709.71 35.69 709.4 34.64 709.4 33.89 L 709.4 33.89 C 709.4 33.89 709.4 33.89 709.4 33.89 L 709.4 26.13 C 709.4 26.13 709.4 26.12 709.4 26.12 C 709.4 25.37 709.71 24.32 710.93 23.24 C 709.71 22.17 709.4 21.12 709.4 20.38 L 709.4 20.38 C 709.4 20.37 709.4 20.37 709.4 20.37 L 709.4 12.61 C 709.4 12.61 709.4 12.61 709.4 12.6 C 709.41 8.31 717.81 6 725.72 6 C 730.19 6 734.48 6.71 737.49 7.95 L 736.84 9.52 C 734.02 8.36 729.97 7.7 725.72 7.7 C 717.11 7.7 711.11 10.29 711.11 12.61 C 711.11 14.94 717.11 17.53 725.72 17.53 C 725.95 17.53 726.18 17.53 726.41 17.52 L 726.48 19.22 C 726.23 19.23 725.97 19.23 725.72 19.23 C 719.97 19.23 713.97 18.01 711.11 15.69 L 711.11 20.35 L 711.11 20.35 L 711.11 20.37 C 711.12 21.26 712.03 22.04 712.8 22.53 C 715.11 24 719.24 25.01 723.84 25.22 L 723.77 26.91 C 719.1 26.7 715.01 25.73 712.38 24.25 C 711.73 24.73 711.11 25.39 711.11 26.13 C 711.11 28.46 717.11 31.05 725.72 31.05 C 726.56 31.05 727.4 31.02 728.21 30.96 L 728.33 32.66 C 727.48 32.72 726.6 32.75 725.72 32.75 C 719.97 32.75 713.97 31.52 711.11 29.21 L 711.11 33.87 L 711.11 33.87 C 711.12 34.78 712.03 35.56 712.8 36.05 C 715.44 37.73 720.39 38.78 725.72 38.78 L 726.1 38.78 L 726.1 40.48 L 725.72 40.48 C 720.3 40.48 715.38 39.48 712.37 37.78 C 711.73 38.26 711.11 38.91 711.11 39.65 C 711.11 41.97 717.11 44.56 725.72 44.56 C 734.32 44.56 740.32 41.98 740.33 39.66 L 740.33 39.65 L 740.33 39.65 C 740.32 38.91 739.71 38.26 739.06 37.77 C 738.64 38.01 738.19 38.24 737.68 38.45 L 737.03 36.88 C 737.65 36.62 738.19 36.34 738.63 36.05 C 739.41 35.55 740.33 34.76 740.33 33.88 Z M 747.67 21.44 L 742.87 21.44 C 742.58 21.44 742.32 21.3 742.16 21.07 C 742 20.84 741.96 20.54 742.07 20.28 L 744.99 12.98 L 733.93 12.98 L 728.78 23.18 L 734.25 23.18 C 734.53 23.18 734.78 23.31 734.95 23.53 C 735.11 23.75 735.15 24.03 735.07 24.29 L 730.19 39.5 Z M 750.3 21.18 L 728.87 43.32 C 728.71 43.49 728.48 43.58 728.25 43.58 C 728.1 43.58 727.95 43.54 727.82 43.46 C 727.47 43.26 727.32 42.85 727.44 42.47 L 733.08 24.88 L 727.4 24.88 C 727.1 24.88 726.82 24.73 726.67 24.47 C 726.51 24.22 726.5 23.91 726.63 23.65 L 732.63 11.75 C 732.77 11.46 733.07 11.27 733.4 11.27 L 746.25 11.27 C 746.54 11.27 746.8 11.42 746.96 11.65 C 747.12 11.88 747.16 12.18 747.05 12.44 L 744.13 19.74 L 749.68 19.74 C 750.02 19.74 750.34 19.95 750.47 20.26 C 750.6 20.57 750.54 20.94 750.3 21.18 Z M 712.36 47.72 C 713.57 48.41 715.1 48.98 716.9 49.43 L 717.32 47.78 C 715.69 47.38 714.27 46.84 713.2 46.24 Z M 716.9 35.83 L 717.32 34.18 C 715.69 33.77 714.27 33.24 713.2 32.64 L 712.36 34.12 C 713.57 34.8 715.1 35.38 716.9 35.83 Z M 712.36 20.52 L 713.2 19.04 C 714.27 19.64 715.69 20.17 717.32 20.58 L 716.9 22.22 C 715.1 21.77 713.57 21.2 712.36 20.52 Z" fill="#ffffff" stroke="none" pointer-events="all" style="fill: light-dark(rgb(255, 255, 255), rgb(18, 18, 18));"/></g></g><g data-cell-id="eOX6T2bV7QpIJoPPMK0O-6"><g transform="translate(0.5,0.5)"><path d="M 494 120 L 494.07 30.07 L 693.63 30" fill="none" stroke="#000000" stroke-miterlimit="10" pointer-events="stroke" style="stroke: light-dark(rgb(0, 0, 0), rgb(255, 255, 255));"/><path d="M 698.88 30 L 691.88 33.5 L 693.63 30 L 691.88 26.5 Z" fill="#000000" stroke="#000000" stroke-miterlimit="10" pointer-events="all" style="fill: light-dark(rgb(0, 0, 0), rgb(255, 255, 255)); stroke: light-dark(rgb(0, 0, 0), rgb(255, 255, 255));"/></g></g><g data-cell-id="eOX6T2bV7QpIJoPPMK0O-19"><g transform="translate(0.5,0.5)"><path d="M 740 380 L 740 326.37" fill="none" stroke="#000000" stroke-miterlimit="10" pointer-events="stroke" style="stroke: light-dark(rgb(0, 0, 0), rgb(255, 255, 255));"/><path d="M 740 321.12 L 743.5 328.12 L 740 326.37 L 736.5 328.12 Z" fill="#000000" stroke="#000000" stroke-miterlimit="10" pointer-events="all" style="fill: light-dark(rgb(0, 0, 0), rgb(255, 255, 255)); stroke: light-dark(rgb(0, 0, 0), rgb(255, 255, 255));"/></g></g><g data-cell-id="eOX6T2bV7QpIJoPPMK0O-15"><g transform="translate(0.5,0.5)"><rect x="690" y="380" width="100" height="50" fill="#ffffff" stroke="#000000" pointer-events="all" style="fill: light-dark(#ffffff, var(--ge-dark-color, #121212)); stroke: light-dark(rgb(0, 0, 0), rgb(255, 255, 255));"/></g><g><g><switch><foreignObject style="overflow: visible; text-align: left;" pointer-events="none" width="100%" height="100%" requiredFeatures="http://www.w3.org/TR/SVG11/feature#Extensibility"><div xmlns="http://www.w3.org/1999/xhtml" style="display: flex; align-items: unsafe center; justify-content: unsafe center; width: 98px; height: 1px; padding-top: 405px; margin-left: 691px;"><div style="box-sizing: border-box; font-size: 0; text-align: center; color: #000000; "><div style="display: inline-block; font-size: 12px; font-family: Helvetica; color: light-dark(#000000, #ffffff); line-height: 1.2; pointer-events: all; white-space: normal; word-wrap: normal; ">Local Cache</div></div></div></foreignObject><text x="740" y="409" fill="light-dark(#000000, #ffffff)" font-family="Helvetica" font-size="12px" text-anchor="middle">Local Cache</text></switch></g></g></g><g data-cell-id="eOX6T2bV7QpIJoPPMK0O-17"><g transform="translate(0.5,0.5)"><path d="M 740 490 L 740 436.37" fill="none" stroke="#000000" stroke-miterlimit="10" pointer-events="stroke" style="stroke: light-dark(rgb(0, 0, 0), rgb(255, 255, 255));"/><path d="M 740 431.12 L 743.5 438.12 L 740 436.37 L 736.5 438.12 Z" fill="#000000" stroke="#000000" stroke-miterlimit="10" pointer-events="all" style="fill: light-dark(rgb(0, 0, 0), rgb(255, 255, 255)); stroke: light-dark(rgb(0, 0, 0), rgb(255, 255, 255));"/></g></g><g data-cell-id="eOX6T2bV7QpIJoPPMK0O-16"><g transform="translate(0.5,0.5)"><rect x="690" y="490" width="100" height="40" fill="#ffffff" stroke="#000000" pointer-events="all" style="fill: light-dark(#ffffff, var(--ge-dark-color, #121212)); stroke: light-dark(rgb(0, 0, 0), rgb(255, 255, 255));"/></g><g><g><switch><foreignObject style="overflow: visible; text-align: left;" pointer-events="none" width="100%" height="100%" requiredFeatures="http://www.w3.org/TR/SVG11/feature#Extensibility"><div xmlns="http://www.w3.org/1999/xhtml" style="display: flex; align-items: unsafe center; justify-content: unsafe center; width: 98px; height: 1px; padding-top: 510px; margin-left: 691px;"><div style="box-sizing: border-box; font-size: 0; text-align: center; color: #000000; "><div style="display: inline-block; font-size: 12px; font-family: Helvetica; color: light-dark(#000000, #ffffff); line-height: 1.2; pointer-events: all; white-space: normal; word-wrap: normal; ">FPL API</div></div></div></foreignObject><text x="740" y="514" fill="light-dark(#000000, #ffffff)" font-family="Helvetica" font-size="12px" text-anchor="middle">FPL API</text></switch></g></g></g></g></g></g><switch><g requiredFeatures="http://www.w3.org/TR/SVG11/feature#Extensibility"/><a transform="translate(0,-5)" xlink:href="https://www.drawio.com/doc/faq/svg-export-text-problems" target="_blank"><text text-anchor="middle" font-size="10px" x="50%" y="100%">Text is not SVG - cannot display</text></a></switch></svg>